<svg xmlns="http://www.w3.org/2000/svg" width="25" height="26">
    <path fill="#FFCC30" fill-rule="evenodd" d="M15.739 25.21C9.22 26.959 2.606 22.738.967 15.786-.672 8.833 3.284 1.781 9.804.035a.922.922 0 0 1 .518.004c.532.16.842.75.692 1.318a11.508 11.508 0 0 0 0 5.342c1.384 5.78 6.9 9.271 12.322 7.796a.958.958 0 0 1 .95.278c.259.259.369.644.29 1.013-1.093 4.638-4.488 8.259-8.837 9.424zm6.133-13.761a1.116 1.116 0 0 1 0-1.513.956.956 0 0 1 1.414.006 1.115 1.115 0 0 1 0 1.501.955.955 0 0 1-1.414.006zm.254-7.31a.576.576 0 0 1-.17.097.618.618 0 0 1-.19.064h-.19c-.552 0-1-.478-1-1.066.003-.28.11-.547.296-.743a.955.955 0 0 1 1.42.014 1.113 1.113 0 0 1-.006 1.505.933.933 0 0 1-.16.129zm-4.171 4.319a.93.93 0 0 1-.38.087h-.2l-.18-.065a.723.723 0 0 1-.18-.095 1.811 1.811 0 0 1-.15-.128 1.107 1.107 0 0 1-.29-.756 1.126 1.126 0 0 1 .08-.428.941.941 0 0 1 .54-.578.952.952 0 0 1 1.096.23c.389.42.387 1.096-.006 1.509-.097.095-.209.17-.33.224zm-3.38-5.224h-.2l-.18-.087a.661.661 0 0 1-.18-.095 1.31 1.31 0 0 1-.15-.129 1.01 1.01 0 0 1-.211-.353 1.108 1.108 0 0 1 .211-1.161.96.96 0 0 1 .716-.314c.552.002.997.483.994 1.072 0 .588-.448 1.067-1 1.067z"/>
</svg>
