<svg xmlns="http://www.w3.org/2000/svg" width="30" height="30">
    <path fill="#FFCC30" fill-rule="evenodd" d="M29.226 15.773h-3.835a.773.773 0 1 1 0-1.546h3.835a.774.774 0 1 1 0 1.546zm-6.35-7.555a.771.771 0 0 1-1.093 0 .774.774 0 0 1 0-1.094l1.515-1.516a.77.77 0 0 1 1.093 0 .77.77 0 0 1 0 1.093l-1.515 1.517zM15 22.794c-4.299 0-7.794-3.494-7.794-7.794 0-4.298 3.495-7.793 7.794-7.793 4.299 0 7.793 3.495 7.793 7.793 0 4.3-3.494 7.794-7.793 7.794zm0-17.413a.774.774 0 0 1-.774-.773V.774a.773.773 0 1 1 1.547 0v3.834a.773.773 0 0 1-.773.773zM7.67 8.445a.772.772 0 0 1-.547-.227L5.607 6.701a.773.773 0 0 1 1.094-1.093l1.516 1.516a.775.775 0 0 1-.547 1.321zm-3.062 7.328H.773a.773.773 0 1 1 0-1.546h3.835a.774.774 0 0 1 0 1.546zm2.515 6.011a.774.774 0 0 1 1.094 1.093l-1.516 1.516a.772.772 0 0 1-1.093 0 .775.775 0 0 1-.001-1.094l1.516-1.515zM15 24.62c.427 0 .773.345.773.774v3.833a.773.773 0 1 1-1.547 0v-3.833c0-.429.347-.774.774-.774zm7.876-2.836l2.041 2.04a.774.774 0 0 1-1.093 1.094l-2.041-2.041a.773.773 0 1 1 1.093-1.093z"/>
</svg>
